<svg height="448pt" viewBox="0 0 448 448" width="448pt" xmlns="http://www.w3.org/2000/svg"><path d="m224 0v82.238281c9.277344-6.785156 20.507812-10.378906 32-10.238281 26.480469 0 48 17.921875 48 40s-21.519531 40-48 40c-11.492188.140625-22.722656-3.453125-32-10.238281v82.238281h82.238281c-6.785156 9.277344-10.378906 20.507812-10.238281 32 0 26.480469 17.921875 48 40 48v-304zm0 0" fill="#ffcd00"/><path d="m448 16c-.027344-8.824219-7.175781-15.9726562-16-16h-96v304c22.078125 0 40-21.519531 40-48 .140625-11.492188-3.453125-22.722656-10.238281-32h82.238281zm0 0" fill="#ffd31c"/><path d="m144 336c0 22.078125 21.519531 40 48 40 11.492188.140625 22.722656-3.453125 32-10.238281v82.238281h208c8.824219-.027344 15.972656-7.175781 16-16v-96zm0 0" fill="#70b53c"/><path d="m448 224h-82.238281c6.785156 9.277344 10.378906 20.507812 10.238281 32 0 26.480469-17.921875 48-40 48s-40-21.519531-40-48c-.140625-11.492188 3.453125-22.722656 10.238281-32h-82.238281v82.238281c-9.277344-6.785156-20.507812-10.378906-32-10.238281-26.480469 0-48 17.921875-48 40h304zm0 0" fill="#5eac24"/><path d="m72 192c-.140625 11.492188 3.453125 22.722656 10.238281 32h-82.238281v208c.0273438 8.824219 7.175781 15.972656 16 16h96v-304c-22.078125 0-40 21.519531-40 48zm0 0" fill="#ff3051"/><path d="m192 296c11.492188-.140625 22.722656 3.453125 32 10.238281v-82.238281h-82.238281c6.785156-9.277344 10.378906-20.507812 10.238281-32 0-26.480469-17.921875-48-40-48v304h112v-82.238281c-9.277344 6.785156-20.507812 10.378906-32 10.238281-26.480469 0-48-17.921875-48-40s21.519531-40 48-40zm0 0" fill="#ff4764"/><path d="m0 224h82.238281c-6.785156-9.277344-10.378906-20.507812-10.238281-32 0-26.480469 17.921875-48 40-48s40 21.519531 40 48c.140625 11.492188-3.453125 22.722656-10.238281 32h82.238281v-82.238281c9.277344 6.785156 20.507812 10.378906 32 10.238281 26.480469 0 48-17.921875 48-40h-304zm0 0" fill="#1ceaf2"/><path d="m256 72c-11.492188-.140625-22.722656 3.453125-32 10.238281v-82.238281h-208c-8.824219.0273438-15.9726562 7.175781-16 16v96h304c0-22.078125-21.519531-40-48-40zm0 0" fill="#00e7f0"/></svg>